<svg version="1.2" xmlns="http://www.w3.org/2000/svg" viewBox="0 0 3000 1100" width="3000" height="1100">
	<style>
		.s0 { fill: #ffffff } 
	</style>
	<path id="ELINA" class="s0" aria-label="ELINA"  d="m689.1 100.3l-36.7 141.3h-332.2l36.8-141.3zm-147.6 568.1l-36.9 142.3h-350.1q-35.8-6.9-67.5-32.8-31.8-25.9-42.3-60.7-12.6-43.8-3.9-96.5 13-78.6 64.4-139.3 49.1-57.7 122.1-85.6 23-9 41.5-11.9h346.6l-36.9 142.3h-335.8q-62.5 18.9-72.3 78.6-7.9 47.7 35.4 63.6zm513.9 0l-37 142.3h-190.8q5.6-1-44.5-13.9-54.4-13.9-86.7-85.6-31.4-71.6-14.5-136.3l123.1-474.6h127.9l-121.1 467.6q-7.8 30.9 13.5 65.7 21.2 34.8 49.1 34.8zm493.4 0l-36.7 141.3h-385.3l36.8-141.3h127.8l110.6-425.8h-127.8l36.9-142.3h385.3l-36.9 142.3h-128.8l-110.6 425.8zm738.9-338.3l-123.9 479.6h-128.7l121.8-466.6q9.2-33.9-14.1-67.7-23.2-33.8-53.8-33.8h-109.8l36.7-141.3h120.6q12.2 3 48.3 12.9 52.5 14.9 85 85.6 33.5 69.6 17.9 131.3zm-399.6 54.8l-110.5 424.8h-127.8l110.4-424.8zm1074.3-104.5l-137.5 529.3h-128.8l73.7-283.5h-168.3q-27.9 0-67.8 34.8-39.1 34.8-46.9 65.6l-48.1 183.1h-127.8l49.9-194q7.7-13.9 12.9-28.9 25.8-69.6 107.9-136.3 83-66.6 146.9-66.6h178.3l22.6-88.6q4.8-17.9-10.3-35.8-14.1-17.9-30.3-17.9h-148.6l36.8-141.3h163.8q12.6 0 36 10.9 48.5 22.9 69.8 62.7 6.2 12 12.6 43.8 8.3 42.8 3.2 62.7z"/>
	<path id="Teknik Elektronika Industri SMKN" class="s0" aria-label="Teknik Elektronika Industri SMKN 2 Garut"  d="m65.5 1003h-10.5v-96.1h-35.4v-9.7h81.3v9.7h-35.4zm74.8 0.7q-11.8 0-20.7-5.1-8.9-5.3-14.1-14.3-4.9-9.3-4.9-21.1 0-11.8 4.8-20.8 4.8-9.2 13.2-14.2 8.4-5.4 19-5.4 10.6 0 18.8 5.2 8.3 5 13 14.2 4.8 9 4.8 21.1 0 0.6-0.2 1.6 0.1 0.8 0 1.6h-65.6v-8h60.2l-4.1 3.2q0.1-8.6-3.5-15.2-3.4-6.8-9.5-10.5-6-3.9-13.9-3.9-7.9 0-14 3.9-6.1 3.7-9.6 10.6-3.4 6.6-3.4 15.4v1.8q0 8.9 3.7 15.9 3.9 6.8 10.6 10.8 6.9 3.7 15.6 3.7 7 0 12.8-2.5 6.1-2.6 10.3-7.9l5.8 7q-5.1 6.3-12.6 9.6-7.5 3.3-16.5 3.3zm83.8-41.5l-20.8 20.2 0.2-13.7 47-45.1h12.6l-33.2 33.5zm-18.7 40.8h-10.2v-112.1h10.2zm60.9 0h-12.6l-31.5-41.3 6.7-8.4zm23.2 0h-10.2v-79.4h9.8v21.8l-1.6-4q3.6-8.8 11.5-13.5 7.8-5.1 18.7-5.1 9.3 0 16.2 3.9 7 3.6 10.9 11.3 4 7.5 4 18.9v46.1h-10.2v-45q0-12.6-6-18.9-5.9-6.6-16.7-6.6-8 0-14.1 3.5-5.9 3.3-9.2 9.9-3.1 6.3-3.1 15.4zm98 0h-10.2v-79.5h10.2zm-5.1-96.9q-3.2 0-5.3-2.2-2.2-2.3-2.2-5.4 0-3.2 2.2-5.4 2.1-2.2 5.3-2.2 3.2 0 5.3 2.1 2.2 2.1 2.2 5.3 0 3.2-2.2 5.6-2 2.2-5.3 2.2zm61.7 56.1l-20.7 20.2 0.2-13.6 46.9-45.2h12.7l-33.3 33.5zm-18.6 40.9h-10.2v-112.2h10.2zm60.8 0h-12.5l-31.5-41.2 6.7-8.5zm126.2 0h-71.1v-105.8h69v9.7h-58.5v86.4h60.6zm-8.4-48.9h-53.2v-9.6h53.2zm41.3 49h-10.2v-112.2h10.2zm60.9 0.7q-11.8 0-20.7-5.1-8.9-5.3-14.1-14.4-4.9-9.2-4.9-21 0-11.8 4.7-20.8 4.9-9.2 13.3-14.2 8.4-5.4 19-5.4 10.6 0 18.8 5.2 8.3 5 13 14.2 4.8 9 4.8 21.1 0 0.6-0.2 1.6 0.1 0.8 0 1.6h-65.6v-8h60.2l-4.1 3.2q0.1-8.6-3.5-15.2-3.4-6.8-9.5-10.5-6-3.9-13.9-3.9-7.9 0-14 3.9-6.1 3.7-9.6 10.6-3.4 6.6-3.4 15.4v1.8q0 8.9 3.7 15.9 3.9 6.8 10.6 10.7 6.9 3.8 15.6 3.8 7 0 12.8-2.5 6.1-2.7 10.3-7.9l5.8 7q-5.1 6.3-12.6 9.6-7.5 3.3-16.5 3.3zm82.8-41.5l-20.8 20.2 0.2-13.7 47-45.1h12.6l-33.2 33.5zm-18.7 40.8h-10.2v-112.1h10.2zm60.9 0h-12.6l-31.5-41.3 6.7-8.4zm38.8 0.7q-10.6 0-16.4-6-5.7-6.1-5.7-17.1v-74.5h10.2v73.9q0 7 3.3 10.9 3.4 3.7 9.7 3.7 6.8 0 11.3-4.1l3.5 7.7q-2.9 2.8-7.3 4.2-4.1 1.3-8.6 1.3zm11.1-71.2h-46.7v-8.9h46.7zm34.3 70.4h-10.2v-79.4h9.8v21.7l-1-3.8q3.1-9 10.6-13.7 7.5-4.9 18.6-4.9v10.5q-0.7-0.1-1.2-0.1-0.6-0.1-1.2-0.1-11.8 0-18.7 7.7-6.7 7.5-6.7 21.6zm75.6 0.7q-11 0-19.8-5.1-8.6-5.3-13.6-14.4-5-9.3-5-21 0-11.9 5-20.9 5-9.1 13.6-14.2 8.7-5.3 19.8-5.3 11.1 0 19.8 5.3 8.7 5.1 13.6 14.2 5 9 5 20.9 0 11.8-5 21-4.9 9.1-13.6 14.4-8.8 5.1-19.8 5.1zm0-9.5q8.1 0 14.4-3.8 6.4-3.9 10-10.9 3.7-7.1 3.7-16.3 0-9.3-3.7-16.2-3.6-7-10-10.9-6.3-3.8-14.4-3.8-8 0-14.4 3.8-6.3 3.9-10.1 10.9-3.7 6.9-3.7 16.2 0 9.2 3.7 16.3 3.8 7 10.1 10.9 6.4 3.8 14.4 3.8zm69.4 8.8h-10.2v-79.5h9.8v21.8l-1.6-3.9q3.6-8.8 11.5-13.6 7.8-5 18.7-5 9.3 0 16.2 3.8 7 3.7 10.9 11.4 4 7.4 4 18.9v46.1h-10.2v-45q0-12.7-6-19-5.9-6.5-16.7-6.5-8 0-14.1 3.5-5.9 3.3-9.2 9.8-3.1 6.3-3.1 15.5zm98 0h-10.2v-79.5h10.2zm-5.1-96.9q-3.2 0-5.3-2.3-2.2-2.2-2.2-5.3 0-3.3 2.2-5.4 2.1-2.3 5.3-2.3 3.2 0 5.3 2.2 2.2 2.1 2.2 5.3 0 3.2-2.2 5.5-2 2.3-5.3 2.3zm61.7 56.1l-20.8 20.2 0.3-13.7 46.9-45.1h12.7l-33.3 33.5zm-18.6 40.8h-10.2v-112.1h10.2zm60.8 0h-12.5l-31.5-41.3 6.7-8.4zm71 0h-9.8v-17.5l-0.4-3v-29.2q0-10.2-5.5-15.6-5.4-5.5-16-5.5-7.3 0-14 2.6-6.5 2.5-11.1 6.8l-4.5-8q5.7-5.1 13.7-7.8 8.1-2.9 16.9-2.9 14.8 0 22.6 7.7 8.1 7.6 8.1 23.1zm-35.8 0.7q-8.5 0-14.8-2.8-6.2-2.9-9.5-8.1-3.3-5.3-3.3-12.1 0-6.2 2.7-11.2 2.9-5.2 9.2-8.2 6.5-3.2 17.3-3.2h26v8h-25.7q-11 0-15.3 4.1-4.1 4-4.1 10.1 0 6.9 5 11.1 5.1 3.9 14 3.9 8.8 0 14.9-4.1 6.2-4.2 9.2-12l2.2 7.4q-2.8 7.9-10 12.7-7 4.4-17.8 4.4zm113.4-0.7h-10.5v-105.8h10.5zm41.5 0h-10.2v-79.4h9.8v21.8l-1.6-4q3.7-8.7 11.5-13.5 7.9-5 18.8-5 9.3 0 16.1 3.8 7 3.7 10.9 11.3 4 7.5 4 18.9v46.1h-10.2v-45q0-12.6-6-18.9-5.8-6.6-16.6-6.6-8.1 0-14.1 3.5-5.9 3.4-9.2 9.9-3.2 6.3-3.2 15.4zm116.9 0.7q-10.8 0-19.4-5.1-8.5-5.1-13.4-14.2-4.9-9.1-4.9-21.2 0-12 4.9-21 4.9-9.1 13.4-14.2 8.6-5.2 19.4-5.2 9.8 0 17.6 4.9 8 4.6 12.5 13.6 4.8 8.9 4.8 21.9 0 12.9-4.6 22.1-4.6 9-12.5 13.8-7.8 4.6-17.8 4.6zm0.7-9.5q8.1 0 14.3-3.7 6.5-4 10.1-10.9 3.8-7.2 3.8-16.4 0-9.3-3.8-16.1-3.6-7.1-10.1-10.9-6.2-3.9-14.3-3.9-8 0-14.4 3.9-6.2 3.8-10.1 10.9-3.6 6.8-3.6 16.1 0 9.2 3.6 16.4 3.9 6.9 10.1 10.9 6.4 3.7 14.4 3.7zm38.2 8.8h-9.8v-23.9l1.1-16-1.5-16v-56.3h10.2zm59.3 0.7q-9.8 0-17.1-3.7-7-3.8-11-11.3-3.9-7.7-3.9-19v-46.1h10.2v45q0 12.6 5.9 19.2 6 6.3 16.9 6.3 7.8 0 13.6-3.3 5.8-3.6 8.9-10 3.2-6.5 3.2-15.5v-41.7h10.2v79.4h-9.8v-21.7l1.6 4q-3.6 8.6-11.3 13.6-7.4 4.8-17.4 4.8zm86 0q-9.4 0-17.8-2.6-8.3-3-12.9-7.2l4.5-8.5q4.6 3.8 11.7 6.4 7.2 2.6 15.2 2.6 10.7 0 15.4-3.5 4.9-3.6 4.9-9.5 0-4.4-2.8-6.8-2.5-2.5-7-3.8-4.2-1.3-9.6-2.1-5.2-1-10.5-2.3-5.2-1.2-9.7-3.4-4.2-2.5-6.9-6.5-2.6-4.1-2.6-10.9 0-6.5 3.5-11.7 3.5-5.1 10.1-8 6.8-3 16.4-3 7.3 0 14.6 2.1 7.4 1.9 12.1 5.4l-4.5 8.5q-5-3.6-10.8-5.1-5.7-1.6-11.5-1.6-10.1 0-15 3.7-4.7 3.7-4.7 9.3 0 4.6 2.5 7.3 2.8 2.5 7 4 4.5 1.4 9.7 2.4 5.3 0.7 10.5 2.1 5.3 1.2 9.6 3.5 4.4 2.1 7 6.2 2.7 3.9 2.7 10.5 0 6.8-3.7 12-3.6 5-10.6 7.9-6.9 2.6-16.8 2.6zm73.6 0q-10.7 0-16.4-6-5.7-6.1-5.7-17.1v-74.4h10.2v73.8q0 7 3.3 10.9 3.4 3.7 9.7 3.7 6.7 0 11.2-4.1l3.6 7.7q-2.9 2.8-7.3 4.2-4.2 1.3-8.6 1.3zm11-71.2h-46.6v-8.9h46.6zm33.3 70.5h-10.2v-79.5h9.8v21.7l-1-3.8q3.2-9 10.6-13.7 7.5-4.9 18.6-4.9v10.5q-0.6-0.1-1.2 0-0.6-0.2-1.2-0.2-11.8 0-18.6 7.7-6.8 7.6-6.8 21.6zm57 0h-10.2v-79.4h10.2zm-5.1-97q-3.1 0-5.3-2.2-2.1-2.3-2.1-5.4 0-3.2 2.1-5.3 2.2-2.3 5.3-2.3 3.2 0 5.4 2.1 2.1 2.1 2.1 5.3 0 3.2-2.1 5.6-2.1 2.2-5.4 2.2zm100.9 97.9q-11.4 0-21.6-3.8-10.2-4-15.9-10l4.2-8.6q5.4 5.5 14.2 9.2 9.1 3.7 19 3.7 9.5 0 15.4-2.5 6-2.5 8.8-6.6 2.9-4.4 2.9-9.6 0-6.2-3.5-9.9-3.3-3.8-8.8-5.9-5.5-2.4-12.2-4-6.5-1.6-13.2-3.4-6.5-2.1-12.1-5.2-5.4-3.1-8.9-8.3-3.3-5.3-3.3-13.7 0-7.9 3.9-14.4 4-6.7 12-10.6 8.4-4.1 21.1-4.1 8.5 0 16.9 2.6 8.4 2.4 14.4 6.9l-3.7 8.8q-6.4-4.5-13.7-6.6-7.2-2.2-13.9-2.2-9.1 0-15.2 2.8-5.8 2.4-8.6 6.8-2.7 4.2-2.7 9.6 0 6.3 3.3 10 3.4 3.8 8.9 6.1 5.5 2 12.1 3.8 6.7 1.5 13.2 3.6 6.7 1.8 12.1 5 5.6 2.9 8.9 8.1 3.4 5.2 3.4 13.5 0 7.7-4 14.4-4 6.5-12.4 10.5-8.2 4-21 4zm70.4-0.9h-10.2v-105.9h8.7l46 82.6h-4.6l45.6-82.6h8.7l0.1 105.9h-10.2l-0.1-89.1h2.5l-42 75.6h-5l-42.3-75.6h2.8zm159.3-50.1l-22.3 23.9-0.4-13.7 60.8-65.9h12.3l-44.5 48.9zm-20.9 50.1h-10.5v-105.8h10.5zm74.3 0h-12.6l-43.3-52.6 7.1-8.1zm27.7 0h-10.6v-105.9h8.7l69.4 92h-4.6v-92h10.5v105.9h-8.7l-69.3-92h4.6zm203.2 0h-70.6v-7.7l41.8-43.1q5.8-5.9 8.7-10.3 2.9-4.6 3.8-8.3 1.1-4 1.1-7.6 0-9.3-6.1-14.5-6-5.3-17.5-5.3-8.9 0-15.8 2.9-6.8 2.9-11.7 9l-7.3-6.7q5.8-7.3 14.9-11.2 9.3-4 20.7-4 10.2 0 17.7 3.5 7.5 3.4 11.5 9.8 4.2 6.5 4.2 15.4 0 5-1.5 10-1.2 5-4.9 10.6-3.3 5.4-10.1 12.4l-38.4 39.6-2.8-4.3h62.3zm103.3 1q-11.4 0-21.3-4-9.5-4-16.8-11.2-7-7.4-11-17.2-4-9.8-4-21.5 0-11.6 4-21.3 4-9.9 11-17.2 7.4-7.3 17-11.2 9.7-4.1 21.3-4.1 11.4 0 20.9 3.8 9.7 3.8 16.5 11.5l-6.6 7.1q-6.5-6.6-14-9.5-7.6-3-16.4-3-9.3 0-17.3 3.4-7.8 3.2-13.6 9.2-5.8 5.9-9.1 14-3.1 7.9-3.1 17.3 0 9.4 3.1 17.4 3.3 8 9.1 14.1 5.8 5.8 13.6 9.2 7.9 3.2 17.2 3.2 8.5 0 16.2-2.6 7.7-2.9 14.2-9.3l6 8.4q-7.1 6.7-16.8 10.1-9.6 3.4-20.1 3.4zm36.9-53.9v40.4l-10.1-1.4v-39zm85.9 52.9h-9.8v-17.4l-0.4-3v-29.3q0-10.2-5.5-15.6-5.4-5.4-16-5.4-7.3 0-14.1 2.6-6.4 2.5-11 6.7l-4.6-7.9q5.8-5.1 13.8-7.9 8.1-2.9 16.9-2.9 14.7 0 22.6 7.7 8.1 7.7 8.1 23.2zm-35.9 0.7q-8.5 0-14.7-2.8-6.2-3-9.5-8.2-3.4-5.3-3.4-12.1 0-6.1 2.8-11.2 2.8-5.2 9.2-8.2 6.4-3.2 17.3-3.2h26v8h-25.7q-11 0-15.3 4.2-4.1 4-4.1 10 0 6.9 5 11.1 5 3.9 14 3.9 8.7 0 14.8-4 6.3-4.2 9.3-12.1l2.2 7.4q-2.8 7.9-10 12.7-7 4.5-17.9 4.5zm73-0.7h-10.2v-79.5h9.8v21.7l-1-3.8q3.2-9 10.6-13.7 7.5-4.9 18.6-4.9v10.5q-0.6-0.1-1.2 0-0.6-0.2-1.2-0.2-11.8 0-18.6 7.7-6.8 7.6-6.8 21.6zm79 0.7q-9.7 0-17-3.7-7.1-3.8-11-11.4-4-7.6-4-18.9v-46.1h10.2v45q0 12.6 6 19.1 6 6.4 16.8 6.4 7.9 0 13.6-3.3 5.9-3.6 8.9-10 3.3-6.6 3.3-15.5v-41.7h10.2v79.4h-9.8v-21.7l1.6 3.9q-3.6 8.7-11.3 13.7-7.4 4.8-17.5 4.8zm89.6 0q-10.6 0-16.3-6-5.8-6.1-5.8-17.1v-74.5h10.2v73.9q0 7 3.3 10.9 3.4 3.7 9.8 3.7 6.7 0 11.2-4.1l3.5 7.7q-2.9 2.8-7.2 4.2-4.2 1.3-8.7 1.3zm11.1-71.2h-46.6v-8.9h46.6z"/>
</svg>